<svg width="1366" height="233" viewBox="0 0 1366 233" fill="none" xmlns="http://www.w3.org/2000/svg">
<g clip-path="url(#clip0)">
<path fill-rule="evenodd" clip-rule="evenodd" d="M-17.1044 84.9907L6.84333 80.4523H-16.0226V79.4523H12.1201L52.6908 71.7637H-10.9292L-17.9168 72.9427L-18.0832 71.9567L-16.0226 71.609V70.7637H-11.013L25.1886 64.6555H-16.0226V63.6555H31.1153L67.3226 57.5463H12.7951L-17.9238 62.2808L-18.0761 61.2925L6.23016 57.5463H-16.0226V56.5463H12.7185L42.1029 52.0175H-7.58602L-15.9527 53.1984L-16.0924 52.2083L-14.7409 52.0175H-16.0226V51.0175H-7.65625L18.8344 47.2784H-16.0226V46.2784H25.9191L52.4098 42.5392H6.63008L-14.9705 45.3002L-15.0972 44.3083L-1.25707 42.5392H-16.0226V41.5392H6.56642L35.8196 37.8001H-5.34229L-14.9729 38.9822L-15.0948 37.9897L-13.5501 37.8001H-16.0226V36.8001H-5.40344L12.1836 34.6413H-16.0226V33.6413H20.3303L44.3585 30.6918H9.03677C0.13929 31.6939 -8.16521 32.6296 -15.4722 33.4533L-15.5842 32.4595C-10.7525 31.9149 -5.48457 31.3213 0.102531 30.6918H-16.0226V29.6918H8.98064C15.1366 28.9986 21.5758 28.2736 28.1644 27.5321H-3.34273L-14.4868 28.7145L-14.5923 27.7201L-12.8207 27.5321H-16.0226V26.5321H-3.39564L9.50806 25.163H-16.0226V24.163H-15.4991L-15.5781 23.3756L-1.91033 22.0033H-16.0226V21.0033H8.04932L21.6945 19.6332H-3.84297L-15.4776 20.8162L-15.5787 19.8213L-13.7289 19.6332H-16.0226V18.6332H-3.89368L9.57168 17.2641H-16.0226V16.2641H-15.5519L-6.28229 15.2897H-16.0226V14.2897H146.62H177.981L181.164 13.8991L181.212 14.2897H252.549L255.308 13.9003L255.363 14.2897H286.891L289.412 13.9012L289.472 14.2897H323.691L325.987 13.9023L326.053 14.2897H355.967L360.088 13.5088L360.236 14.2897H395.832L397.649 13.9062L397.73 14.2897H430.656L432.24 13.9092L432.331 14.2897H466.968L468.31 13.9139L468.415 14.2897H539.089L539.932 13.9346L540.081 14.2897H610.662L610.991 14.0126L611.224 14.2897H682V14H683V14.2897H753.776L754.009 14.0126L754.338 14.2897H824.919L825.068 13.9346L825.911 14.2897H896.585L896.69 13.9139L898.032 14.2897H932.669L932.76 13.9092L934.344 14.2897H967.27L967.351 13.9062L969.168 14.2897H1004.76L1004.91 13.5088L1009.03 14.2897H1038.95L1039.01 13.9023L1041.31 14.2897H1075.53L1075.59 13.9012L1078.11 14.2897H1109.64L1109.69 13.9003L1112.45 14.2897H1183.79L1183.84 13.8991L1187.02 14.2897H1218.38H1382.01V15.2897H1371.28L1380.55 16.2641H1382.01V17.2641H1355.43L1368.89 18.6332H1382.01V19.6332H1378.73L1380.58 19.8213L1380.48 20.8162L1368.84 19.6332H1343.31L1356.95 21.0033H1382.01V22.0033H1366.91L1380.58 23.3756L1380.5 24.163H1382.01V25.163H1355.49L1368.4 26.5321H1382.01V27.5321H1377.82L1379.59 27.7201L1379.49 28.7145L1368.34 27.5321H1336.84C1343.42 28.2736 1349.86 28.9986 1356.02 29.6918H1382.01V30.6918H1364.9C1370.48 31.3213 1375.75 31.9149 1380.58 32.4595L1380.47 33.4533C1373.17 32.6296 1364.86 31.6939 1355.96 30.6918H1320.64L1344.67 33.6413H1382.01V34.6413H1352.82L1370.4 36.8001H1382.01V37.8001H1378.55L1380.09 37.9897L1379.97 38.9822L1370.34 37.8001H1329.18L1358.43 41.5392H1382.01V42.5392H1366.26L1380.1 44.3083L1379.97 45.3002L1358.37 42.5392H1312.59L1339.08 46.2784H1382.01V47.2784H1346.17L1372.66 51.0175H1382.01V52.0175H1379.74L1381.09 52.2083L1380.95 53.1984L1372.59 52.0175H1322.9L1352.28 56.5463H1382.01V57.5463H1358.77L1383.08 61.2925L1382.92 62.2808L1352.21 57.5463H1297.68L1333.88 63.6555H1382.01V64.6555H1339.81L1376.01 70.7637H1382.01V71.7637H1381.94L1383.08 71.9567L1382.92 72.9427L1375.93 71.7637H1312.31L1352.88 79.4523H1382.01V80.4523H1358.16L1382.1 84.9907L1381.92 85.9732L1352.79 80.4523H1282.54L1322.7 88.9306H1382.01V89.9306H1327.43L1375.07 99.9883H1382.01V100.988H1379.81L1382.61 101.58L1382.4 102.558L1374.96 100.988H1295.3L1347.04 113.416H1382.01V114.416H1351.21L1381.63 121.724L1381.4 122.697L1346.92 114.416H1255.51L1311.16 130.003H1382.01V131.003H1314.73L1381.66 149.75H1382.01V149.849L1383.13 150.164L1382.87 151.127L1381.52 150.75H1269.22C1294.7 159.283 1319.13 167.466 1341.7 175.025H1382.01V176.025H1344.69C1357.34 180.264 1369.39 184.3 1380.69 188.084L1380.37 189.032C1368.24 184.967 1355.23 180.611 1341.54 176.025H1209.87L1284.38 207.409H1382.01V208.409H1286.76L1341.67 231.54L1341.28 232.461L1284.18 208.409H1136.08C1159.5 221.626 1174.53 230.194 1176.64 231.583L1176.08 232.417C1173.95 231.011 1158.33 222.111 1134.04 208.409H985.308C1001.09 221.665 1010.79 229.808 1011.06 230.03L1010.44 230.811C1010.15 230.582 1000.08 222.123 983.753 208.409H834.057L847.549 230.953L846.691 231.467L832.892 208.409H683V231.605H682V208.409H534.086L520.286 231.467L519.428 230.953L532.92 208.409H381.247C364.922 222.123 354.848 230.582 354.561 230.811L353.937 230.03C354.215 229.808 363.914 221.665 379.692 208.409H232.933C208.648 222.111 193.024 231.011 190.893 232.417L190.342 231.583C192.447 230.194 207.479 221.626 230.899 208.409H80.8202L23.7199 232.461L23.3317 231.54L78.2442 208.409H-16.0226V207.409H80.6182L155.125 176.025H23.4621C9.76926 180.611 -3.23556 184.967 -15.3693 189.032L-15.687 188.084C-4.39267 184.3 7.65671 180.264 20.3135 176.025H-16.0226V175.025H23.299C45.8667 167.466 70.3007 159.283 95.7821 150.75H-16.0226V150.611L-17.8651 151.127L-18.1348 150.164L50.2724 131.003H-16.0226V130.003H53.8426L109.494 114.416H18.0756L-16.4002 122.697L-16.6337 121.724L13.7938 114.416H-16.0226V113.416H17.9572L69.6983 100.988H-9.96485L-17.402 102.558L-17.6086 101.58L-14.8057 100.988H-16.0226V99.9883H-10.0693L37.5677 89.9306H-16.0226V88.9306H42.3041L82.4606 80.4523H12.214L-16.9182 85.9732L-17.1044 84.9907ZM1134.31 207.409H1281.81L1207.3 176.025H1078.51C1099.78 187.964 1118.8 198.658 1134.31 207.409ZM1076.47 176.025C1097.67 187.924 1116.67 198.611 1132.27 207.409H984.117C973.83 198.766 961.088 188.06 946.766 176.025H1076.47ZM1076.73 175.025H1204.92L1147.29 150.75H1033.45C1048.56 159.219 1063.1 167.371 1076.73 175.025ZM1031.4 150.75C1046.5 159.212 1061.04 167.363 1074.69 175.025H945.576C936.493 167.392 926.791 159.238 916.691 150.75H1031.4ZM1031.67 149.75H1144.92L1100.42 131.003H998.2C1007.82 136.39 1017.32 141.71 1026.62 146.921C1028.31 147.867 1029.99 148.81 1031.67 149.75ZM996.153 131.003C1006.31 136.688 1016.33 142.301 1026.13 147.793C1027.3 148.447 1028.46 149.099 1029.62 149.75H915.501C908.239 143.647 900.777 137.376 893.196 131.003H996.153ZM996.414 130.003H1098.04L1061.04 114.416H968.568C977.916 119.647 987.219 124.855 996.414 130.003ZM966.52 114.416C975.865 119.645 985.168 124.853 994.367 130.003H892.006L873.46 114.416H966.52ZM966.781 113.416H1058.66L1029.16 100.988H944.568C951.977 105.133 959.391 109.281 966.781 113.416ZM942.52 100.988C949.926 105.131 957.341 109.28 964.733 113.416H872.27L857.484 100.988H942.52ZM942.78 99.9883H1026.79L1002.91 89.9306H924.798C930.775 93.2734 936.775 96.6291 942.78 99.9883ZM922.749 89.9306C928.725 93.2726 934.725 96.6283 940.732 99.9883H856.294L844.328 89.9306H922.749ZM923.009 88.9306H1000.53L980.407 80.4523H907.846C912.877 83.2647 917.934 86.0927 923.009 88.9306ZM905.797 80.4523C910.826 83.2641 915.884 86.0921 920.96 88.9306H843.138L833.051 80.4523H905.797ZM906.058 79.4523H978.033L959.78 71.7637H892.304C896.859 74.31 901.446 76.8743 906.058 79.4523ZM890.254 71.7637C894.809 74.3094 899.396 76.8737 904.008 79.4523H831.861L822.714 71.7637H890.254ZM890.515 70.7637H957.406L942.905 64.6555H879.586C883.205 66.6779 886.849 68.7147 890.515 70.7637ZM877.536 64.6555C881.154 66.6775 884.799 68.7144 888.465 70.7637H821.524L814.257 64.6555H877.536ZM877.797 63.6555H940.531L926.028 57.5463H866.864C870.478 59.5658 874.124 61.603 877.797 63.6555ZM864.814 57.5463C868.427 59.5653 872.073 61.6025 875.747 63.6555H813.068L805.799 57.5463H864.814ZM865.075 56.5463H923.654L912.902 52.0175H856.969C859.651 53.516 862.354 55.026 865.075 56.5463ZM854.919 52.0175C857.601 53.5158 860.303 55.0257 863.025 56.5463H804.61L799.222 52.0175H854.919ZM855.179 51.0175H910.528L901.651 47.2784H848.486C850.702 48.5161 852.933 49.7627 855.179 51.0175ZM846.436 47.2784C848.651 48.5159 850.883 49.7625 853.129 51.0175H798.032L793.584 47.2784H846.436ZM846.696 46.2784H899.277L890.4 42.5392H840.002C842.216 43.7758 844.448 45.0224 846.696 46.2784ZM837.952 42.5392C840.165 43.7756 842.397 45.0222 844.646 46.2784H792.394L787.946 42.5392H837.952ZM838.212 41.5392H888.026L879.149 37.8001H831.518C833.729 39.0354 835.961 40.282 838.212 41.5392ZM829.467 37.8001C831.678 39.0351 833.91 40.2817 836.161 41.5392H786.756L782.307 37.8001H829.467ZM829.727 36.8001H876.775L871.65 34.6413H825.862C827.143 35.3568 828.432 36.0764 829.727 36.8001ZM823.811 34.6413C825.092 35.3567 826.381 36.0763 827.676 36.8001H781.118L778.55 34.6413H823.811ZM824.071 33.6413H869.276L862.274 30.6918H818.79C820.535 31.6666 822.296 32.6499 824.071 33.6413ZM816.739 30.6918C818.484 31.6664 820.245 32.6497 822.02 33.6413H777.36L773.851 30.6918H816.739ZM816.999 29.6918H859.9L854.773 27.5321H813.131C814.411 28.2471 815.701 28.967 816.999 29.6918ZM811.08 27.5321C812.36 28.2469 813.649 28.9669 814.948 29.6918H772.661L770.092 27.5321H811.08ZM811.34 26.5321H852.399L849.149 25.163H808.888C809.701 25.6172 810.519 26.0736 811.34 26.5321ZM806.837 25.163C807.65 25.6172 808.467 26.0735 809.289 26.5321H768.902L767.274 25.163H806.837ZM807.097 24.163H846.775L841.647 22.0033H803.229C804.508 22.7174 805.797 23.4373 807.097 24.163ZM801.177 22.0033C802.456 22.7172 803.746 23.4372 805.046 24.163H766.084L763.515 22.0033H801.177ZM801.437 21.0033H839.273L836.021 19.6332H798.983C799.797 20.0874 800.615 20.5441 801.437 21.0033ZM796.932 19.6332C797.745 20.0873 798.563 20.544 799.386 21.0033H762.325L760.695 19.6332H796.932ZM797.192 18.6332H833.647L830.396 17.2641H794.739C795.552 17.7178 796.37 18.1741 797.192 18.6332ZM792.688 17.2641C793.5 17.7177 794.318 18.1741 795.14 18.6332H759.506L757.877 17.2641H792.688ZM792.948 16.2641H828.022L825.709 15.2897H791.202C791.781 15.6131 792.363 15.9379 792.948 16.2641ZM789.15 15.2897C789.73 15.613 790.311 15.9378 790.896 16.2641H756.687L755.528 15.2897H789.15ZM982.563 207.409H833.459L814.676 176.025H945.212C959.482 188.016 972.216 198.717 982.563 207.409ZM944.022 175.025H814.078L799.55 150.75H915.137C925.227 159.23 934.928 167.382 944.022 175.025ZM812.912 175.025L798.384 150.75H683V175.025H812.912ZM913.947 149.75H798.951L787.732 131.003H891.641C899.219 137.372 906.681 143.644 913.947 149.75ZM797.786 149.75L786.567 131.003H683V149.75H797.786ZM890.452 130.003H787.134L777.805 114.416H871.905L890.452 130.003ZM785.968 130.003L776.64 114.416H683V130.003H785.968ZM870.716 113.416H777.207L769.769 100.988H855.929L870.716 113.416ZM776.041 113.416L768.604 100.988H683V113.416H776.041ZM854.74 99.9883H769.171L763.151 89.9306H842.773L854.74 99.9883ZM768.005 99.9883L761.986 89.9306H683V99.9883H768.005ZM841.584 88.9306H762.553L757.479 80.4523H831.497L841.584 88.9306ZM761.388 88.9306L756.314 80.4523H683V88.9306H761.388ZM830.307 79.4523H756.881L752.279 71.7637H821.16L830.307 79.4523ZM755.715 79.4523L751.114 71.7637H683V79.4523H755.715ZM819.97 70.7637H751.681L748.025 64.6555H812.703L819.97 70.7637ZM750.515 70.7637L746.86 64.6555H683V70.7637H750.515ZM811.513 63.6555H747.427L743.771 57.5463H804.245L811.513 63.6555ZM746.261 63.6555L742.605 57.5463H683V63.6555H746.261ZM803.056 56.5463H743.172L740.462 52.0175H797.668L803.056 56.5463ZM742.007 56.5463L739.296 52.0175H683V56.5463H742.007ZM796.478 51.0175H739.863L737.625 47.2784H792.029L796.478 51.0175ZM738.698 51.0175L736.46 47.2784H683V51.0175H738.698ZM790.84 46.2784H737.027L734.789 42.5392H786.391L790.84 46.2784ZM735.862 46.2784L733.624 42.5392H683V46.2784H735.862ZM785.202 41.5392H734.191L731.953 37.8001H780.753L785.202 41.5392ZM733.025 41.5392L730.788 37.8001H683V41.5392H733.025ZM779.564 36.8001H731.355L730.063 34.6413H776.995L779.564 36.8001ZM730.189 36.8001L728.897 34.6413H683V36.8001H730.189ZM775.806 33.6413H729.464L727.699 30.6918H772.297L775.806 33.6413ZM728.299 33.6413L726.534 30.6918H683V33.6413H728.299ZM771.107 29.6918H727.1L725.808 27.5321H768.538L771.107 29.6918ZM725.935 29.6918L724.643 27.5321H683V29.6918H725.935ZM767.348 26.5321H725.209L724.39 25.163H765.72L767.348 26.5321ZM724.044 26.5321L723.225 25.163H683V26.5321H724.044ZM764.53 24.163H723.792L722.499 22.0033H761.961L764.53 24.163ZM722.626 24.163L721.334 22.0033H683V24.163H722.626ZM760.771 21.0033H721.901L721.081 19.6332H759.141L760.771 21.0033ZM720.735 21.0033L719.915 19.6332H683V21.0033H720.735ZM757.951 18.6332H720.482L719.663 17.2641H756.323L757.951 18.6332ZM719.317 18.6332L718.497 17.2641H683V18.6332H719.317ZM755.133 16.2641H719.064L718.481 15.2897H753.974L755.133 16.2641ZM717.899 16.2641L717.316 15.2897H683V16.2641H717.899ZM832.293 207.409L813.511 176.025H683V207.409H832.293ZM234.706 207.409H380.883C391.17 198.766 403.912 188.06 418.234 176.025H290.507C269.31 187.924 250.305 198.611 234.706 207.409ZM288.464 176.025C267.197 187.964 248.182 198.658 232.671 207.409H83.1943L157.701 176.025H288.464ZM292.288 175.025H419.424C428.507 167.392 438.209 159.238 448.309 150.75H335.573C320.474 159.212 305.939 167.363 292.288 175.025ZM333.528 150.75C318.415 159.219 303.88 167.371 290.245 175.025H160.075L217.705 150.75H333.528ZM337.358 149.75H449.499C456.761 143.647 464.223 137.376 471.804 131.003H370.824C360.671 136.688 350.651 142.301 340.849 147.793L337.358 149.75ZM368.778 131.003C359.157 136.39 349.661 141.71 340.36 146.921L335.312 149.75H220.079L264.583 131.003H368.778ZM372.61 130.003H472.994L491.54 114.416H400.458C391.113 119.645 381.809 124.853 372.61 130.003ZM398.41 114.416C389.062 119.647 379.759 124.855 370.563 130.003H266.957L303.962 114.416H398.41ZM402.245 113.416H492.73L507.516 100.988H424.458C417.051 105.131 409.636 109.28 402.245 113.416ZM422.409 100.988C415.001 105.133 407.586 109.281 400.197 113.416H306.336L335.84 100.988H422.409ZM426.246 99.9883H508.706L520.672 89.9306H444.229C438.252 93.2726 432.252 96.6283 426.246 99.9883ZM442.18 89.9306C436.202 93.2734 430.202 96.6291 424.197 99.9883H338.214L362.091 89.9306H442.18ZM446.017 88.9306H521.862L531.949 80.4523H461.18C456.151 83.2641 451.093 86.0921 446.017 88.9306ZM459.131 80.4523C454.101 83.2647 449.043 86.0927 443.968 88.9306H364.465L384.593 80.4523H459.131ZM462.969 79.4523H533.139L542.286 71.7637H476.723C472.169 74.3094 467.581 76.8737 462.969 79.4523ZM474.674 71.7637C470.118 74.31 465.531 76.8743 460.92 79.4523H386.967L405.22 71.7637H474.674ZM478.512 70.7637H543.476L550.743 64.6555H489.441C485.823 66.6775 482.179 68.7144 478.512 70.7637ZM487.391 64.6555C483.773 66.6779 480.128 68.7147 476.463 70.7637H407.594L422.095 64.6555H487.391ZM491.231 63.6555H551.933L559.201 57.5463H502.163C498.55 59.5653 494.904 61.6025 491.231 63.6555ZM500.113 57.5463C496.499 59.5658 492.854 61.603 489.181 63.6555H424.469L438.972 57.5463H500.113ZM503.953 56.5463H560.39L565.778 52.0175H512.059L503.953 56.5463ZM510.008 52.0175L501.903 56.5463H441.346L452.098 52.0175H510.008ZM513.849 51.0175H566.968L571.416 47.2784H520.542L513.849 51.0175ZM518.491 47.2784L511.798 51.0175H454.472L463.349 47.2784H518.491ZM522.332 46.2784H572.606L577.054 42.5392H529.026L522.332 46.2784ZM526.975 42.5392L520.281 46.2784H465.723L474.6 42.5392H526.975ZM530.816 41.5392H578.244L582.693 37.8001H537.511L530.816 41.5392ZM535.46 37.8001L528.765 41.5392H476.974L485.851 37.8001H535.46ZM539.301 36.8001H583.882L586.45 34.6413H543.167L539.301 36.8001ZM541.116 34.6413L537.25 36.8001H488.225L493.35 34.6413H541.116ZM544.957 33.6413H587.64L591.149 30.6918H550.239L544.957 33.6413ZM548.188 30.6918L542.906 33.6413H495.724L502.726 30.6918H548.188ZM552.03 29.6918H592.339L594.908 27.5321H555.898L552.03 29.6918ZM553.847 27.5321L549.979 29.6918H505.1L510.227 27.5321H553.847ZM557.689 26.5321H596.098L597.726 25.163H560.141L557.689 26.5321ZM558.09 25.163L555.637 26.5321H512.601L515.851 25.163H558.09ZM561.932 24.163H598.916L601.485 22.0033H565.8L561.932 24.163ZM563.749 22.0033L559.881 24.163H518.225L523.353 22.0033H563.749ZM567.592 21.0033H602.675L604.305 19.6332H570.046L567.592 21.0033ZM567.994 19.6332L565.54 21.0033H525.727L528.979 19.6332H567.994ZM571.837 18.6332H605.494L607.123 17.2641H574.29L571.837 18.6332ZM572.238 17.2641L569.786 18.6332H531.353L534.604 17.2641H572.238ZM576.081 16.2641H608.313L609.472 15.2897H577.827L576.081 16.2641ZM575.775 15.2897L574.03 16.2641H536.978L539.291 15.2897H575.775ZM682 207.409H534.684L553.467 176.025H682V207.409ZM682 175.025H554.065L568.593 150.75H682V175.025ZM552.9 175.025L567.428 150.75H449.863C439.773 159.23 430.072 167.382 420.978 175.025H552.9ZM682 149.75H569.192L580.411 131.003H682V149.75ZM568.026 149.75L579.245 131.003H473.359C465.781 137.372 458.319 143.644 451.053 149.75H568.026ZM682 130.003H581.009L590.338 114.416H682V130.003ZM579.844 130.003L589.172 114.416H493.095L474.548 130.003H579.844ZM682 113.416H590.936L598.374 100.988H682V113.416ZM589.771 113.416L597.208 100.988H509.071L494.284 113.416H589.771ZM682 99.9883H598.972L604.992 89.9306H682V99.9883ZM597.807 99.9883L603.826 89.9306H522.227L510.26 99.9883H597.807ZM682 88.9306H605.59L610.664 80.4523H682V88.9306ZM604.425 88.9306L609.499 80.4523H533.503L523.416 88.9306H604.425ZM682 79.4523H611.262L615.864 71.7637H682V79.4523ZM610.097 79.4523L614.698 71.7637H543.84L534.693 79.4523H610.097ZM682 70.7637H616.462L620.118 64.6555H682V70.7637ZM615.297 70.7637L618.952 64.6555H552.297L545.03 70.7637H615.297ZM682 63.6555H620.716L624.372 57.5463H682V63.6555ZM619.551 63.6555L623.207 57.5463H560.755L553.487 63.6555H619.551ZM682 56.5463H624.971L627.681 52.0175H682V56.5463ZM623.806 56.5463L626.516 52.0175H567.332L561.945 56.5463H623.806ZM682 51.0175H628.28L630.518 47.2784H682V51.0175ZM627.114 51.0175L629.352 47.2784H572.971L568.522 51.0175H627.114ZM682 46.2784H631.116L633.354 42.5392H682V46.2784ZM629.951 46.2784L632.188 42.5392H578.609L574.16 46.2784H629.951ZM682 41.5392H633.952L636.19 37.8001H682V41.5392ZM632.787 41.5392L635.025 37.8001H584.247L579.798 41.5392H632.787ZM682 36.8001H636.788L638.08 34.6413H682V36.8001ZM635.623 36.8001L636.915 34.6413H588.005L585.436 36.8001H635.623ZM682 33.6413H638.679L640.444 30.6918H682V33.6413ZM637.513 33.6413L639.279 30.6918H592.703L589.194 33.6413H637.513ZM682 29.6918H641.043L642.335 27.5321H682V29.6918ZM639.877 29.6918L641.17 27.5321H596.462L593.893 29.6918H639.877ZM682 26.5321H642.934L643.753 25.163H682V26.5321ZM641.768 26.5321L642.587 25.163H599.28L597.652 26.5321H641.768ZM682 24.163H644.351L645.644 22.0033H682V24.163ZM643.186 24.163L644.479 22.0033H603.039L600.47 24.163H643.186ZM682 21.0033H646.242L647.062 19.6332H682V21.0033ZM645.077 21.0033L645.897 19.6332H605.859L604.229 21.0033H645.077ZM682 18.6332H647.661L648.48 17.2641H682V18.6332ZM646.495 18.6332L647.315 17.2641H608.677L607.049 18.6332H646.495ZM682 16.2641H649.079L649.662 15.2897H682V16.2641ZM647.913 16.2641L648.496 15.2897H611.026L609.867 16.2641H647.913ZM533.519 207.409L552.301 176.025H419.788C405.518 188.016 392.784 198.717 382.437 207.409H533.519ZM1370.99 16.2641L1361.72 15.2897H1336.01L1345.59 16.2641H1370.99ZM1300.05 15.2897H1326.12L1335.71 16.2641H1309.75L1300.05 15.2897ZM1319.71 17.2641H1345.54L1359.01 18.6332H1333.35L1319.71 17.2641ZM1378.41 24.163L1356.9 22.0033H1325.71L1346.07 24.163H1378.41ZM1346.94 21.0033L1333.3 19.6332H1303.37L1316.29 21.0033H1346.94ZM1323.34 18.6332L1309.7 17.2641H1281.04L1293.95 18.6332H1323.34ZM1299.74 16.2641L1290.04 15.2897H1262.44L1271.62 16.2641H1299.74ZM1227.64 15.2897H1252.96L1262.14 16.2641H1236.41C1233.08 15.8933 1230.13 15.5659 1227.64 15.2897ZM1245.37 17.2641H1271.57L1284.47 18.6332H1257.61C1253.27 18.1469 1249.17 17.6881 1245.37 17.2641ZM1266.54 19.6332H1293.9L1306.81 21.0033H1278.75C1274.56 20.533 1270.48 20.0749 1266.54 19.6332ZM1287.66 22.0033H1316.23L1336.59 24.163H1306.88C1300.39 23.433 1293.94 22.7086 1287.66 22.0033ZM1315.78 25.163H1346.01L1358.92 26.5321H1327.95L1315.78 25.163ZM1347.08 29.6918C1340.85 28.9906 1334.42 28.266 1327.89 27.5321H1294.9L1312.49 29.6918H1347.08ZM1319 26.5321L1306.83 25.163H1275.6L1286.75 26.5321H1319ZM1297.93 24.163C1291.67 23.4598 1285.51 22.7676 1279.55 22.0991L1278.7 22.0033H1249.86L1267.45 24.163H1297.93ZM1269.78 21.0033C1265.54 20.5279 1261.45 20.0695 1257.56 19.6332H1230.55L1241.71 21.0033H1269.78ZM1248.62 18.6332C1244.17 18.1354 1240.08 17.6789 1236.44 17.2736L1236.35 17.2641H1211.25L1222.4 18.6332H1248.62ZM1227.35 16.2641C1225.83 16.0956 1224.48 15.9467 1223.32 15.819C1221.75 15.6475 1220.53 15.5145 1219.69 15.4244C1219.27 15.3793 1218.94 15.3451 1218.71 15.3221C1218.56 15.3064 1218.46 15.2978 1218.42 15.2934L1218.39 15.291C1218.38 15.2901 1218.38 15.2897 1218.38 15.2897H1195.17L1203.1 16.2641H1227.35ZM1153.07 15.2897H1186.96L1194.9 16.2641H1160.69L1153.07 15.2897ZM1168.52 17.2641H1203.04L1214.2 18.6332H1179.23L1168.52 17.2641ZM1187.05 19.6332H1222.34L1233.5 21.0033H1197.77L1187.05 19.6332ZM1205.59 22.0033H1241.65L1259.25 24.163H1222.49L1205.59 22.0033ZM1230.31 25.163H1267.39L1278.55 26.5321H1241.03L1230.31 25.163ZM1248.85 27.5321H1286.69L1304.29 29.6918H1265.75L1248.85 27.5321ZM1273.57 30.6918H1312.43L1336.46 33.6413H1296.64L1273.57 30.6918ZM1304.47 34.6413H1344.61L1362.2 36.8001H1321.36L1304.47 34.6413ZM1350.55 41.5392L1321.29 37.8001H1279.01L1305.51 41.5392H1350.55ZM1313.47 36.8001L1296.58 34.6413H1256.64L1271.93 36.8001H1313.47ZM1288.76 33.6413L1265.68 30.6918H1228.66L1249.55 33.6413H1288.76ZM1257.86 29.6918L1240.96 27.5321H1206.27L1221.57 29.6918H1257.86ZM1233.14 26.5321L1222.43 25.163H1189.49L1199.18 26.5321H1233.14ZM1214.6 24.163L1197.71 22.0033H1167.1L1182.4 24.163H1214.6ZM1189.88 21.0033L1179.16 19.6332H1150.31L1160.01 21.0033H1189.88ZM1171.34 18.6332L1160.63 17.2641H1133.52L1143.22 18.6332H1171.34ZM1152.81 16.2641L1145.18 15.2897H1119.54L1126.44 16.2641H1152.81ZM1084.6 15.2897H1112.38L1119.28 16.2641H1090.92L1084.6 15.2897ZM1097.41 17.2641H1126.37L1136.07 18.6332H1106.29L1097.41 17.2641ZM1112.78 19.6332H1143.15L1152.86 21.0033H1121.67L1112.78 19.6332ZM1128.16 22.0033H1159.94L1175.25 24.163H1142.17L1128.16 22.0033ZM1148.66 25.163H1182.33L1192.03 26.5321H1157.54L1148.66 25.163ZM1164.03 27.5321H1199.11L1214.42 29.6918H1178.04L1164.03 27.5321ZM1184.53 30.6918H1221.5L1242.4 33.6413H1203.67L1184.53 30.6918ZM1210.16 34.6413H1249.48L1264.78 36.8001H1224.16L1210.16 34.6413ZM1230.65 37.8001H1271.86L1298.35 41.5392H1254.91L1230.65 37.8001ZM1261.4 42.5392H1305.44L1331.93 46.2784H1285.66L1261.4 42.5392ZM1292.15 47.2784H1339.01L1365.5 51.0175H1316.41L1292.15 47.2784ZM1345.72 56.5463L1316.33 52.0175H1264.91L1291.75 56.5463H1345.72ZM1309.84 51.0175L1285.58 47.2784H1236.82L1258.98 51.0175H1309.84ZM1279.1 46.2784L1254.83 42.5392H1208.73L1230.9 46.2784H1279.1ZM1248.35 41.5392L1224.09 37.8001H1180.65L1202.81 41.5392H1248.35ZM1217.6 36.8001L1203.59 34.6413H1161.93L1174.72 36.8001H1217.6ZM1197.1 33.6413L1177.97 30.6918H1138.52L1156 33.6413H1197.1ZM1171.48 29.6918L1157.46 27.5321H1119.79L1132.59 29.6918H1171.48ZM1150.98 26.5321L1142.09 25.163H1105.75L1113.87 26.5321H1150.98ZM1135.6 24.163L1121.59 22.0033H1087.02L1099.82 24.163H1135.6ZM1115.1 21.0033L1106.21 19.6332H1072.98L1081.1 21.0033H1115.1ZM1099.73 18.6332L1090.84 17.2641H1058.94L1067.05 18.6332H1099.73ZM1084.35 16.2641L1078.03 15.2897H1047.24L1053.01 16.2641H1084.35ZM1014.31 15.2897H1041.22L1047 16.2641H1019.45L1014.31 15.2897ZM1024.73 17.2641H1052.93L1061.04 18.6332H1031.95L1024.73 17.2641ZM1037.23 19.6332H1066.97L1075.09 21.0033H1044.46L1037.23 19.6332ZM1049.74 22.0033H1081.01L1093.81 24.163H1061.13L1049.74 22.0033ZM1066.41 25.163H1099.74L1107.85 26.5321H1073.63L1066.41 25.163ZM1078.91 27.5321H1113.78L1126.58 29.6918H1090.31L1078.91 27.5321ZM1095.58 30.6918H1132.51L1149.99 33.6413H1111.15L1095.58 30.6918ZM1116.42 34.6413H1155.92L1168.71 36.8001H1127.81L1116.42 34.6413ZM1133.09 37.8001H1174.64L1196.8 41.5392H1152.82L1133.09 37.8001ZM1158.1 42.5392H1202.72L1224.89 46.2784H1177.83L1158.1 42.5392ZM1183.11 47.2784H1230.81L1252.97 51.0175H1202.84L1183.11 47.2784ZM1208.11 52.0175H1258.9L1285.74 56.5463H1232.01L1208.11 52.0175ZM1237.29 57.5463H1291.67L1327.87 63.6555H1269.52L1237.29 57.5463ZM1274.8 64.6555H1333.8L1370 70.7637H1307.03L1274.8 64.6555ZM1347.51 79.4523L1306.94 71.7637H1241.39L1277.8 79.4523H1347.51ZM1301.66 70.7637L1269.43 64.6555H1207.72L1236.65 70.7637H1301.66ZM1264.15 63.6555L1231.92 57.5463H1174.05L1202.98 63.6555H1264.15ZM1226.64 56.5463L1202.74 52.0175H1147.86L1169.31 56.5463H1226.64ZM1197.47 51.0175L1177.74 47.2784H1125.41L1143.12 51.0175H1197.47ZM1172.46 46.2784L1152.73 42.5392H1102.97L1120.68 46.2784H1172.46ZM1147.45 41.5392L1127.72 37.8001H1080.52L1098.23 41.5392H1147.45ZM1122.44 36.8001L1111.05 34.6413H1065.56L1075.79 36.8001H1122.44ZM1105.78 33.6413L1090.21 30.6918H1046.85L1060.82 33.6413H1105.78ZM1084.94 29.6918L1073.54 27.5321H1031.89L1042.12 29.6918H1084.94ZM1068.26 26.5321L1061.04 25.163H1020.67L1027.15 26.5321H1068.26ZM1055.76 24.163L1044.36 22.0033H1005.7L1015.93 24.163H1055.76ZM1039.09 21.0033L1031.86 19.6332H994.477L1000.97 21.0033H1039.09ZM1026.58 18.6332L1019.36 17.2641H983.256L989.74 18.6332H1026.58ZM1014.08 16.2641L1008.94 15.2897H973.904L978.519 16.2641H1014.08ZM938.508 15.2897H969.063L973.678 16.2641H942.564L938.508 15.2897ZM946.728 17.2641H978.415L984.899 18.6332H952.428L946.728 17.2641ZM956.591 19.6332H989.636L996.125 21.0033H962.295L956.591 19.6332ZM966.459 22.0033H1000.86L1011.09 24.163H975.45L966.459 22.0033ZM979.614 25.163H1015.83L1022.31 26.5321H985.314L979.614 25.163ZM989.477 27.5321H1027.05L1037.28 29.6918H998.469L989.477 27.5321ZM1002.63 30.6918H1042.01L1055.98 33.6413H1014.91L1002.63 30.6918ZM1019.08 34.6413H1060.72L1070.94 36.8001H1028.06L1019.08 34.6413ZM1032.23 37.8001H1075.68L1093.39 41.5392H1047.79L1032.23 37.8001ZM1051.96 42.5392H1098.13L1115.84 46.2784H1067.52L1051.96 42.5392ZM1071.69 47.2784H1120.57L1138.28 51.0175H1087.26L1071.69 47.2784ZM1091.42 52.0175H1143.02L1164.47 56.5463H1110.27L1091.42 52.0175ZM1114.44 57.5463H1169.21L1198.14 63.6555H1139.87L1114.44 57.5463ZM1144.04 64.6555H1202.88L1231.81 70.7637H1169.47L1144.04 64.6555ZM1173.63 71.7637H1236.55L1272.96 79.4523H1205.64L1173.63 71.7637ZM1209.8 80.4523H1277.7L1317.86 88.9306H1245.1L1209.8 80.4523ZM1249.26 89.9306H1322.59L1370.23 99.9883H1291.14L1249.26 89.9306ZM1342.76 113.416L1291.02 100.988H1207.57L1251.94 113.416H1342.76ZM1286.86 99.9883L1244.98 89.9306H1168.09L1204 99.9883H1286.86ZM1240.82 88.9306L1205.52 80.4523H1134.25L1164.52 88.9306H1240.82ZM1201.36 79.4523L1169.35 71.7637H1103.23L1130.68 79.4523H1201.36ZM1165.18 70.7637L1139.75 64.6555H1077.85L1099.66 70.7637H1165.18ZM1135.59 63.6555L1110.16 57.5463H1052.47L1074.28 63.6555H1135.59ZM1105.99 56.5463L1087.14 52.0175H1032.73L1048.9 56.5463H1105.99ZM1082.97 51.0175L1067.41 47.2784H1015.81L1029.16 51.0175H1082.97ZM1063.24 46.2784L1047.68 42.5392H998.889L1012.24 46.2784H1063.24ZM1043.51 41.5392L1027.94 37.8001H981.97L995.319 41.5392H1043.51ZM1023.78 36.8001L1014.79 34.6413H970.692L978.399 36.8001H1023.78ZM1010.63 33.6413L998.35 30.6918H956.591L967.122 33.6413H1010.63ZM994.187 29.6918L985.195 27.5321H945.31L953.021 29.6918H994.187ZM981.032 26.5321L975.332 25.163H936.852L941.74 26.5321H981.032ZM971.169 24.163L962.177 22.0033H925.571L933.282 24.163H971.169ZM958.013 21.0033L952.309 19.6332H917.11L922.001 21.0033H958.013ZM948.146 18.6332L942.446 17.2641H908.651L913.539 18.6332H948.146ZM938.283 16.2641L934.226 15.2897H901.602L905.081 16.2641H938.283ZM864.118 15.2897H897.895L901.374 16.2641H867.068C865.929 15.887 864.943 15.5615 864.118 15.2897ZM870.086 17.2641H904.944L909.832 18.6332H874.208C872.714 18.1366 871.338 17.6798 870.086 17.2641ZM877.215 19.6332H913.402L918.293 21.0033H881.332C879.888 20.5228 878.516 20.0658 877.215 19.6332ZM884.334 22.0033H921.864L929.574 24.163H890.815C888.537 23.4035 886.375 22.683 884.334 22.0033ZM893.814 25.163H933.145L938.033 26.5321H897.919L893.814 25.163ZM900.917 27.5321H941.603L949.314 29.6918H907.389C905.162 28.9487 903.004 28.2285 900.917 27.5321ZM910.385 30.6918H952.884L963.414 33.6413H919.219C916.174 32.6245 913.227 31.6408 910.385 30.6918ZM922.213 34.6413H966.984L974.692 36.8001H928.676L922.213 34.6413ZM931.67 37.8001H978.262L991.612 41.5392H942.861C939.024 40.2571 935.292 39.0099 931.67 37.8001ZM945.854 42.5392H995.182L1008.53 46.2784H957.041C953.226 45.0031 949.495 43.7561 945.854 42.5392ZM960.033 47.2784H1012.1L1025.45 51.0175H971.218L960.033 47.2784ZM974.209 52.0175H1029.02L1045.19 56.5463H987.754C983.153 55.0078 978.635 53.4974 974.209 52.0175ZM990.744 57.5463H1048.76L1070.57 63.6555H1009.01C1002.8 61.5771 996.703 59.5389 990.744 57.5463ZM1012 64.6555H1074.14L1095.95 70.7637H1030.26C1024.08 68.6945 1017.98 66.6569 1012 64.6555ZM1033.25 71.7637H1099.52L1126.97 79.4523H1056.23C1048.45 76.8495 1040.78 74.2839 1033.25 71.7637ZM1059.22 80.4523H1130.54L1160.81 88.9306H1084.56C1076.01 86.0698 1067.55 83.2404 1059.22 80.4523ZM1087.54 89.9306H1164.38L1200.29 99.9883H1117.6C1107.49 96.6053 1097.46 93.2477 1087.54 89.9306ZM1120.58 100.988H1203.86L1248.23 113.416H1157.71C1145.29 109.256 1132.88 105.105 1120.58 100.988ZM1160.7 114.416H1251.8L1307.45 130.003H1207.26C1191.82 124.835 1176.25 119.621 1160.7 114.416ZM1210.25 131.003H1311.02L1377.95 149.75H1266.23C1247.99 143.64 1229.23 137.358 1210.25 131.003ZM1338.55 175.025C1315.94 167.45 1291.51 159.268 1266.07 150.75H1149.87L1207.5 175.025H1338.55ZM1263.08 149.75C1244.82 143.635 1226.06 137.353 1207.1 131.003H1102.99L1147.5 149.75H1263.08ZM1204.11 130.003C1188.66 124.831 1173.09 119.618 1157.55 114.416H1063.61L1100.62 130.003H1204.11ZM1154.56 113.416C1142.13 109.254 1129.73 105.103 1117.43 100.988H1031.74L1061.24 113.416H1154.56ZM1114.45 99.9883C1104.33 96.6038 1094.3 93.2461 1084.39 89.9306H1005.48L1029.36 99.9883H1114.45ZM1081.41 88.9306C1072.85 86.0685 1064.4 83.239 1056.07 80.4523H982.983L1003.11 88.9306H1081.41ZM1053.08 79.4523C1045.3 76.8481 1037.63 74.2825 1030.1 71.7637H962.356L980.609 79.4523H1053.08ZM1027.11 70.7637C1020.92 68.6934 1014.83 66.6558 1008.85 64.6555H945.481L959.982 70.7637H1027.11ZM1005.86 63.6555C999.64 61.5757 993.545 59.5375 987.591 57.5463H928.604L943.107 63.6555H1005.86ZM984.6 56.5463C979.996 55.0068 975.479 53.4963 971.055 52.0175H915.478L926.23 56.5463H984.6ZM968.064 51.0175L956.879 47.2784H904.227L913.104 51.0175H968.064ZM953.887 46.2784C950.068 45.0019 946.337 43.7548 942.699 42.5392H892.976L901.853 46.2784H953.887ZM939.706 41.5392C935.864 40.2554 932.131 39.0082 928.514 37.8001H881.725L890.602 41.5392H939.706ZM925.52 36.8001L919.056 34.6413H874.226L879.351 36.8001H925.52ZM916.062 33.6413C913.01 32.6223 910.063 31.6385 907.227 30.6918H864.85L871.852 33.6413H916.062ZM904.23 29.6918C901.998 28.9469 899.839 28.2266 897.757 27.5321H857.349L862.476 29.6918H904.23ZM894.759 26.5321L890.653 25.163H851.725L854.975 26.5321H894.759ZM887.653 24.163C885.359 23.3983 883.196 22.6777 881.17 22.0033H844.223L849.351 24.163H887.653ZM878.166 21.0033C876.708 20.518 875.334 20.061 874.047 19.6332H838.597L841.849 21.0033H878.166ZM871.037 18.6332C869.495 18.1214 868.117 17.6643 866.908 17.2641H832.973L836.223 18.6332H871.037ZM863.881 16.2641C862.268 15.7331 861.256 15.4035 860.887 15.2897H828.285L830.599 16.2641H863.881ZM3.2835 15.2897L-5.98613 16.2641H19.4069L28.9902 15.2897H3.2835ZM38.8762 15.2897L29.2929 16.2641H55.2495L64.954 15.2897H38.8762ZM19.4576 17.2641L5.99228 18.6332H31.6542L45.2898 17.2641H19.4576ZM8.0994 22.0033L-13.4109 24.163H18.9331L39.2887 22.0033H8.0994ZM48.7137 21.0033H18.059L31.7043 19.6332H61.6264L48.7137 21.0033ZM71.0515 18.6332H41.6639L55.2996 17.2641H83.9552L71.0515 18.6332ZM93.3802 16.2641H65.2592L74.9637 15.2897H102.564L93.3802 16.2641ZM112.042 15.2897L102.858 16.2641H128.59C131.919 15.8933 134.866 15.5659 137.361 15.2897H112.042ZM93.4331 17.2641L80.5294 18.6332H107.388C111.732 18.1469 115.833 17.6881 119.628 17.2641H93.4331ZM71.1044 19.6332L58.1916 21.0033H86.2483C90.4385 20.533 94.5231 20.0749 98.4631 19.6332H71.1044ZM48.7666 22.0033L28.411 24.163H58.1173C64.6111 23.433 71.0587 22.7086 77.3401 22.0033H48.7666ZM18.986 25.163L6.08228 26.5321H37.0512C41.0857 26.0782 45.1527 25.6207 49.223 25.163H18.986ZM52.5052 29.6918H17.9176C24.146 28.9906 30.5839 28.266 37.1073 27.5321H70.1L52.5052 29.6918ZM78.2467 26.5321H45.9971C50.0543 26.0758 54.1227 25.6183 58.1733 25.163H89.4002L78.2467 26.5321ZM97.5469 24.163H67.0713C73.3301 23.4598 79.4933 22.7676 85.45 22.0991L86.3042 22.0033H115.142L97.5469 24.163ZM123.288 21.0033H95.2184C99.4578 20.5279 103.548 20.0695 107.444 19.6332H134.45L123.288 21.0033ZM142.596 18.6332H116.381C120.833 18.1354 124.923 17.6789 128.56 17.2736L128.646 17.2641H153.75L142.596 18.6332ZM161.897 16.2641H137.648C139.17 16.0956 140.521 15.9467 141.684 15.819C143.245 15.6475 144.468 15.5145 145.312 15.4244C145.734 15.3793 146.061 15.3451 146.288 15.3221C146.443 15.3064 146.537 15.2978 146.584 15.2934C146.612 15.2908 146.623 15.2897 146.62 15.2897H169.835L161.897 16.2641ZM178.043 15.2897L170.105 16.2641H204.306L211.929 15.2897H178.043ZM161.958 17.2641L150.804 18.6332H185.771L196.483 17.2641H161.958ZM142.658 19.6332L131.496 21.0033H167.229L177.948 19.6332H142.658ZM123.35 22.0033L105.755 24.163H142.509L159.406 22.0033H123.35ZM97.6081 25.163L86.4545 26.5321H123.975L134.686 25.163H97.6081ZM78.3078 27.5321L60.713 29.6918H99.2543L116.151 27.5321H78.3078ZM52.5663 30.6918L28.5381 33.6413H68.3559L91.4308 30.6918H52.5663ZM20.3914 34.6413L2.8044 36.8001H43.6431L60.5323 34.6413H20.3914ZM59.4945 41.5392H14.4536L43.7067 37.8001H85.9852L59.4945 41.5392ZM93.0699 36.8001H51.5302L68.4195 34.6413H108.364L93.0699 36.8001ZM115.449 33.6413H76.243L99.318 30.6918H136.345L115.449 33.6413ZM143.43 29.6918H107.141L124.038 27.5321H158.731L143.43 29.6918ZM165.815 26.5321H131.862L142.573 25.163H175.515L165.815 26.5321ZM182.6 24.163H150.396L167.293 22.0033H197.901L182.6 24.163ZM204.986 21.0033H175.117L185.835 19.6332H214.692L204.986 21.0033ZM221.777 18.6332H193.659L204.37 17.2641H231.476L221.777 18.6332ZM238.561 16.2641H212.193L219.816 15.2897H245.464L238.561 16.2641ZM252.619 15.2897L245.716 16.2641H274.081L280.403 15.2897H252.619ZM238.631 17.2641L228.932 18.6332H258.71L267.593 17.2641H238.631ZM221.847 19.6332L212.14 21.0033H243.332L252.221 19.6332H221.847ZM205.056 22.0033L189.755 24.163H222.831L236.844 22.0033H205.056ZM182.67 25.163L172.97 26.5321H207.459L216.342 25.163H182.67ZM165.886 27.5321L150.584 29.6918H186.958L200.971 27.5321H165.886ZM143.5 30.6918L122.604 33.6413H161.333L180.47 30.6918H143.5ZM115.519 34.6413L100.225 36.8001H140.838L154.845 34.6413H115.519ZM93.1401 37.8001L66.6494 41.5392H110.089L134.35 37.8001H93.1401ZM59.5647 42.5392L33.074 46.2784H79.34L103.601 42.5392H59.5647ZM25.9893 47.2784L-0.50132 51.0175H48.5911L72.8517 47.2784H25.9893ZM73.2493 56.5463H19.2834L48.6678 52.0175H100.09L73.2493 56.5463ZM106.017 51.0175H55.156L79.4166 47.2784H128.178L106.017 51.0175ZM134.105 46.2784H85.9049L110.166 42.5392H156.265L134.105 46.2784ZM162.192 41.5392H116.654L140.914 37.8001H184.353L162.192 41.5392ZM190.279 36.8001H147.403L161.41 34.6413H203.074L190.279 36.8001ZM209.001 33.6413H167.898L187.035 30.6918H226.481L209.001 33.6413ZM232.408 29.6918H193.523L207.536 27.5321H245.208L232.408 29.6918ZM251.135 26.5321H214.024L222.907 25.163H259.249L251.135 26.5321ZM265.176 24.163H229.396L243.409 22.0033H277.976L265.176 24.163ZM283.902 21.0033H249.897L258.786 19.6332H292.022L283.902 21.0033ZM297.949 18.6332H265.275L274.158 17.2641H306.063L297.949 18.6332ZM311.99 16.2641H280.646L286.968 15.2897H317.765L311.99 16.2641ZM323.775 15.2897L318 16.2641H345.549L350.69 15.2897H323.775ZM312.074 17.2641L303.959 18.6332H333.048L340.272 17.2641H312.074ZM298.033 19.6332L289.913 21.0033H320.541L327.771 19.6332H298.033ZM283.986 22.0033L271.186 24.163H303.868L315.265 22.0033H283.986ZM265.259 25.163L257.145 26.5321H291.367L298.592 25.163H265.259ZM251.218 27.5321L238.418 29.6918H274.694L286.09 27.5321H251.218ZM232.492 30.6918L215.011 33.6413H253.854L269.417 30.6918H232.492ZM209.084 34.6413L196.29 36.8001H237.186L248.577 34.6413H209.084ZM190.363 37.8001L168.202 41.5392H212.178L231.909 37.8001H190.363ZM162.276 42.5392L140.115 46.2784H187.171L206.902 42.5392H162.276ZM134.188 47.2784L112.028 51.0175H162.164L181.894 47.2784H134.188ZM106.101 52.0175L79.2598 56.5463H132.989L156.887 52.0175H106.101ZM73.3331 57.5463L37.1258 63.6555H95.476L127.713 57.5463H73.3331ZM31.1991 64.6555L-5.00252 70.7637H57.9676L90.1992 64.6555H31.1991ZM87.1969 79.4523H17.4908L58.0615 71.7637H123.613L87.1969 79.4523ZM128.349 70.7637H63.3383L95.5699 64.6555H157.28L128.349 70.7637ZM162.017 63.6555H100.847L133.083 57.5463H190.952L162.017 63.6555ZM195.689 56.5463H138.36L162.258 52.0175H217.139L195.689 56.5463ZM221.875 51.0175H167.534L187.265 47.2784H239.585L221.875 51.0175ZM244.322 46.2784H192.542L212.272 42.5392H262.032L244.322 46.2784ZM266.768 41.5392H217.549L237.279 37.8001H284.478L266.768 41.5392ZM289.215 36.8001H242.556L253.948 34.6413H299.439L289.215 36.8001ZM304.176 33.6413H259.224L274.788 30.6918H318.146L304.176 33.6413ZM322.882 29.6918H280.065L291.461 27.5321H333.111L322.882 29.6918ZM337.848 26.5321H296.738L303.962 25.163H344.332L337.848 26.5321ZM349.069 24.163H309.239L320.635 22.0033H359.298L349.069 24.163ZM364.034 21.0033H325.912L333.142 19.6332H370.523L364.034 21.0033ZM375.26 18.6332H338.418L345.643 17.2641H381.744L375.26 18.6332ZM386.481 16.2641H350.919L356.061 15.2897H391.096L386.481 16.2641ZM-5.22847 99.9883H73.8616L115.735 89.9306H42.4086L-5.22847 99.9883ZM47.1449 88.9306H119.899L155.197 80.4523H87.3014L47.1449 88.9306ZM92.0377 79.4523H159.36L191.371 71.7637H128.454L92.0377 79.4523ZM133.19 70.7637H195.534L220.965 64.6555H162.121L133.19 70.7637ZM166.858 63.6555H225.128L250.563 57.5463H195.793L166.858 63.6555ZM200.529 56.5463H254.726L273.581 52.0175H221.98L200.529 56.5463ZM226.716 51.0175H277.745L293.312 47.2784H244.426L226.716 51.0175ZM249.163 46.2784H297.475L313.043 42.5392H266.873L249.163 46.2784ZM271.609 41.5392H317.206L332.774 37.8001H289.319L271.609 41.5392ZM294.055 36.8001H336.937L345.925 34.6413H304.28L294.055 36.8001ZM309.017 33.6413H350.088L362.368 30.6918H322.986L309.017 33.6413ZM327.723 29.6918H366.531L375.523 27.5321H337.952L327.723 29.6918ZM342.688 26.5321H379.686L385.386 25.163H349.173L342.688 26.5321ZM353.909 24.163H389.55L398.541 22.0033H364.139L353.909 24.163ZM368.875 21.0033H402.705L408.409 19.6332H375.364L368.875 21.0033ZM380.101 18.6332H412.572L418.272 17.2641H386.585L380.101 18.6332ZM391.322 16.2641H422.436L426.492 15.2897H395.937L391.322 16.2641ZM113.064 113.416H22.239L73.9801 100.988H157.434L113.064 113.416ZM161.004 99.9883H78.1434L120.017 89.9306H196.912L161.004 99.9883ZM200.482 88.9306H124.18L159.479 80.4523H230.752L200.482 88.9306ZM234.322 79.4523H163.642L195.652 71.7637H261.772L234.322 79.4523ZM265.342 70.7637H199.816L225.246 64.6555H287.15L265.342 70.7637ZM290.72 63.6555H229.41L254.845 57.5463H312.532L290.72 63.6555ZM316.102 56.5463H259.008L277.863 52.0175H332.271L316.102 56.5463ZM335.841 51.0175H282.027L297.594 47.2784H349.191L335.841 51.0175ZM352.761 46.2784H301.757L317.325 42.5392H366.111L352.761 46.2784ZM369.681 41.5392H321.488L337.055 37.8001H383.031L369.681 41.5392ZM386.601 36.8001H341.219L350.207 34.6413H394.308L386.601 36.8001ZM397.878 33.6413H354.37L366.65 30.6918H408.409L397.878 33.6413ZM411.979 29.6918H370.813L379.805 27.5321H419.69L411.979 29.6918ZM423.26 26.5321H383.968L389.668 25.163H428.148L423.26 26.5321ZM431.718 24.163H393.831L402.823 22.0033H439.429L431.718 24.163ZM442.999 21.0033H406.987L412.691 19.6332H447.891L442.999 21.0033ZM451.461 18.6332H416.854L422.554 17.2641H456.349L451.461 18.6332ZM459.919 16.2641H426.717L430.774 15.2897H463.398L459.919 16.2641ZM53.9801 131.003L-12.9485 149.75H98.7684C117.012 143.64 135.773 137.358 154.754 131.003H53.9801ZM57.5503 130.003H157.741C173.179 124.835 188.752 119.621 204.3 114.416H113.201L57.5503 130.003ZM116.771 113.416H207.288C219.713 109.256 232.116 105.105 244.415 100.988H161.141L116.771 113.416ZM164.712 99.9883H247.403C257.511 96.6053 267.543 93.2477 277.455 89.9306H200.62L164.712 99.9883ZM204.19 88.9306H280.443C288.992 86.0698 297.448 83.2404 305.78 80.4523H234.46L204.19 88.9306ZM238.03 79.4523H308.769C316.548 76.8495 324.216 74.2839 331.75 71.7637H265.48L238.03 79.4523ZM269.05 70.7637H334.739C340.924 68.6945 347.016 66.6569 352.999 64.6555H290.858L269.05 70.7637ZM294.428 63.6555H355.989C362.203 61.5771 368.297 59.5389 374.256 57.5463H316.239L294.428 63.6555ZM319.81 56.5463H377.246C381.847 55.0078 386.365 53.4974 390.791 52.0175H335.979L319.81 56.5463ZM339.549 51.0175H393.782C397.581 49.7472 401.311 48.5003 404.967 47.2784H352.898L339.549 51.0175ZM356.469 46.2784H407.959C411.774 45.0031 415.505 43.7561 419.147 42.5392H369.818L356.469 46.2784ZM373.389 41.5392H422.139C425.976 40.2571 429.709 39.0099 433.33 37.8001H386.738L373.389 41.5392ZM390.308 36.8001H436.324L442.787 34.6413H398.016L390.308 36.8001ZM401.586 33.6413H445.782C448.826 32.6245 451.773 31.6408 454.615 30.6918H412.116L401.586 33.6413ZM415.686 29.6918H457.611C459.838 28.9487 461.996 28.2285 464.083 27.5321H423.397L415.686 29.6918ZM426.967 26.5321H467.081L471.186 25.163H431.855L426.967 26.5321ZM435.426 24.163H474.185C476.463 23.4035 478.625 22.683 480.666 22.0033H443.137L435.426 24.163ZM446.707 21.0033H483.669C485.112 20.5228 486.484 20.0658 487.785 19.6332H451.598L446.707 21.0033ZM455.168 18.6332H490.792C492.286 18.1366 493.662 17.6798 494.914 17.2641H460.056L455.168 18.6332ZM463.627 16.2641H497.932C499.071 15.887 500.057 15.5615 500.882 15.2897H467.105L463.627 16.2641ZM501.119 16.2641C502.732 15.7331 503.744 15.4035 504.113 15.2897H536.715L534.401 16.2641H501.119ZM493.963 18.6332C495.505 18.1214 496.883 17.6643 498.092 17.2641H532.027L528.777 18.6332H493.963ZM486.834 21.0033C488.292 20.518 489.666 20.061 490.953 19.6332H526.403L523.151 21.0033H486.834ZM477.347 24.163C479.641 23.3983 481.804 22.6777 483.83 22.0033H520.777L515.649 24.163H477.347ZM470.241 26.5321L474.347 25.163H513.275L510.025 26.5321H470.241ZM460.77 29.6918C463.002 28.9469 465.161 28.2266 467.243 27.5321H507.651L502.524 29.6918H460.77ZM448.938 33.6413C451.99 32.6223 454.937 31.6385 457.773 30.6918H500.15L493.148 33.6413H448.938ZM439.48 36.8001L445.944 34.6413H490.774L485.649 36.8001H439.48ZM425.294 41.5392C429.136 40.2554 432.869 39.0082 436.486 37.8001H483.275L474.398 41.5392H425.294ZM411.113 46.2784C414.932 45.0019 418.664 43.7548 422.301 42.5392H472.024L463.147 46.2784H411.113ZM396.936 51.0175C400.738 49.7463 404.468 48.4994 408.121 47.2784H460.773L451.896 51.0175H396.936ZM380.4 56.5463C385.004 55.0068 389.521 53.4963 393.945 52.0175H449.522L438.77 56.5463H380.4ZM359.142 63.6555C365.36 61.5757 371.455 59.5375 377.409 57.5463H436.396L421.893 63.6555H359.142ZM337.891 70.7637C344.08 68.6934 350.171 66.6558 356.152 64.6555H419.519L405.018 70.7637H337.891ZM311.921 79.4523C319.704 76.8481 327.372 74.2825 334.902 71.7637H402.644L384.391 79.4523H311.921ZM283.595 88.9306C292.147 86.0685 300.603 83.239 308.932 80.4523H382.017L361.889 88.9306H283.595ZM250.554 99.9883C260.666 96.6038 270.699 93.2461 280.606 89.9306H359.515L335.638 99.9883H250.554ZM210.438 113.416C222.87 109.254 235.273 105.103 247.566 100.988H333.264L303.76 113.416H210.438ZM160.89 130.003C176.339 124.831 191.912 119.618 207.451 114.416H301.386L264.381 130.003H160.89ZM101.918 149.75C120.179 143.635 138.939 137.353 157.904 131.003H262.007L217.503 149.75H101.918ZM215.129 150.75H98.9314C73.4939 159.268 49.0636 167.45 26.4477 175.025H157.499L215.129 150.75Z" fill="url(#paint0_linear)"/>
</g>
<defs>
<linearGradient id="paint0_linear" x1="696.494" y1="564.595" x2="687.855" y2="34.708" gradientUnits="userSpaceOnUse">
<stop stop-color="#FF9900"/>
<stop offset="1" stop-color="#FF9900" stop-opacity="0"/>
</linearGradient>
<clipPath id="clip0">
<rect width="1366" height="249" fill="white"/>
</clipPath>
</defs>
</svg>
