<svg width="72" height="72" viewBox="0 0 72 72" fill="none" xmlns="http://www.w3.org/2000/svg">
<path opacity="0.3" fill-rule="evenodd" clip-rule="evenodd" d="M72 36C72 55.8823 55.8823 72 36 72C16.1177 72 0 55.8823 0 36C0 16.1177 16.1177 0 36 0C55.8823 0 72 16.1177 72 36ZM64 36C64 51.464 51.464 64 36 64C20.536 64 8 51.464 8 36C8 20.536 20.536 8 36 8C51.464 8 64 20.536 64 36Z" fill="#FF9900"/>
<path opacity="0.6" fill-rule="evenodd" clip-rule="evenodd" d="M64 36C64 51.464 51.464 64 36 64C20.536 64 8 51.464 8 36C8 20.536 20.536 8 36 8C51.464 8 64 20.536 64 36ZM56 36C56 47.0457 47.0457 56 36 56C24.9543 56 16 47.0457 16 36C16 24.9543 24.9543 16 36 16C47.0457 16 56 24.9543 56 36Z" fill="#FF9900"/>
<path d="M36 56C47.0457 56 56 47.0457 56 36C56 24.9543 47.0457 16 36 16C24.9543 16 16 24.9543 16 36C16 47.0457 24.9543 56 36 56Z" fill="#FF9900"/>
<path fill-rule="evenodd" clip-rule="evenodd" d="M35.0002 33L35.0001 44H34.0001C33.4478 44 33.0001 44.4477 33.0001 45C33.0001 45.5523 33.4478 46 34.0001 46H35.9773L36 46.0003L36.0227 46H38.0001C38.5524 46 39.0001 45.5523 39.0001 45C39.0001 44.4477 38.5524 44 38.0001 44H36.9999L36.9999 32.0202C37.0001 32.0135 37.0001 32.0068 37.0001 32C37.0001 31.4477 36.5524 31 36.0001 31H36H34.0001C33.4478 31 33.0001 31.4477 33.0001 32C33.0001 32.5523 33.4478 33 34.0001 33H35.0002Z" fill="white"/>
<circle cx="35.5" cy="27.5" r="1.5" fill="white"/>
</svg>
