<svg width="72" height="72" viewBox="0 0 72 72" fill="none" xmlns="http://www.w3.org/2000/svg">
<path opacity="0.3" fill-rule="evenodd" clip-rule="evenodd" d="M72 36C72 55.8823 55.8823 72 36 72C16.1177 72 0 55.8823 0 36C0 16.1177 16.1177 0 36 0C55.8823 0 72 16.1177 72 36ZM64 36C64 51.464 51.464 64 36 64C20.536 64 8 51.464 8 36C8 20.536 20.536 8 36 8C51.464 8 64 20.536 64 36Z" fill="#2FC265"/>
<path opacity="0.6" fill-rule="evenodd" clip-rule="evenodd" d="M64 36C64 51.464 51.464 64 36 64C20.536 64 8 51.464 8 36C8 20.536 20.536 8 36 8C51.464 8 64 20.536 64 36ZM56 36C56 47.0457 47.0457 56 36 56C24.9543 56 16 47.0457 16 36C16 24.9543 24.9543 16 36 16C47.0457 16 56 24.9543 56 36Z" fill="#2FC265"/>
<path d="M36 56C47.0457 56 56 47.0457 56 36C56 24.9543 47.0457 16 36 16C24.9543 16 16 24.9543 16 36C16 47.0457 24.9543 56 36 56Z" fill="#2FC265"/>
<path fill-rule="evenodd" clip-rule="evenodd" d="M27.207 30.793C26.8166 30.4025 26.1835 30.4025 25.793 30.793C25.4025 31.1835 25.4025 31.8165 25.793 32.207L35.293 41.707C35.6835 42.0975 36.3166 42.0975 36.707 41.707C36.711 41.7031 36.7149 41.6991 36.7188 41.6951L44.207 34.2068C44.5975 33.8163 44.5975 33.1832 44.207 32.7927C43.8166 32.4023 43.1835 32.4023 42.793 32.7927L35.9999 39.5859L27.207 30.793Z" fill="white"/>
</svg>
