<svg width="127" height="28" viewBox="0 0 127 28" fill="none" xmlns="http://www.w3.org/2000/svg">
<path d="M44.0923 19C42.6192 19 41.3998 18.5368 40.434 17.6103C39.478 16.6743 39 15.49 39 14.0573C39 12.6246 39.478 11.4451 40.434 10.5186C41.3998 9.58262 42.6192 9.11461 44.0923 9.11461C45.5751 9.11461 46.7945 9.57784 47.7505 10.5043C48.7163 11.4308 49.1992 12.6151 49.1992 14.0573C49.1992 15.4995 48.7163 16.6839 47.7505 17.6103C46.7945 18.5368 45.5751 19 44.0923 19ZM41.9412 16.3066C42.4875 16.8988 43.2046 17.1948 44.0923 17.1948C44.98 17.1948 45.697 16.8988 46.2433 16.3066C46.7896 15.7144 47.0628 14.9647 47.0628 14.0573C47.0628 13.15 46.7896 12.4002 46.2433 11.808C45.697 11.2159 44.98 10.9198 44.0923 10.9198C43.2046 10.9198 42.4875 11.2159 41.9412 11.808C41.4047 12.4002 41.1364 13.15 41.1364 14.0573C41.1364 14.9647 41.4047 15.7144 41.9412 16.3066Z" fill="white"/>
<path d="M57.2422 18.8281H55.3838V14.6447C55.3838 13.7851 54.9497 13.3553 54.0815 13.3553C53.4084 13.3553 52.8718 13.6275 52.4719 14.1719V18.8281H50.6135V11.9083H52.4719V12.8109C53.0865 12.0946 53.9108 11.7364 54.9448 11.7364C55.7058 11.7364 56.2765 11.9322 56.6569 12.3238C57.0471 12.7154 57.2422 13.255 57.2422 13.9427V18.8281Z" fill="white"/>
<path d="M60.9459 18.8281H59.0875V9.27221H60.9459V18.8281Z" fill="white"/>
<path d="M63.7105 11.1633C63.4081 11.1633 63.1447 11.0583 62.9203 10.8481C62.7057 10.6285 62.5984 10.3706 62.5984 10.0745C62.5984 9.77841 62.7057 9.52531 62.9203 9.31519C63.1447 9.10506 63.4081 9 63.7105 9C64.0227 9 64.286 9.10506 64.5007 9.31519C64.7153 9.52531 64.8226 9.77841 64.8226 10.0745C64.8226 10.3706 64.7153 10.6285 64.5007 10.8481C64.286 11.0583 64.0227 11.1633 63.7105 11.1633ZM64.647 18.8281H62.7886V11.9083H64.647V18.8281Z" fill="white"/>
<path d="M73.1185 18.8281H71.2601V14.6447C71.2601 13.7851 70.826 13.3553 69.9578 13.3553C69.2846 13.3553 68.7481 13.6275 68.3481 14.1719V18.8281H66.4897V11.9083H68.3481V12.8109C68.9627 12.0946 69.787 11.7364 70.8211 11.7364C71.582 11.7364 72.1527 11.9322 72.5332 12.3238C72.9234 12.7154 73.1185 13.255 73.1185 13.9427V18.8281Z" fill="white"/>
<path d="M78.2854 19C77.1928 19 76.2905 18.6657 75.5783 17.9971C74.8662 17.3286 74.5101 16.4499 74.5101 15.361C74.5101 14.3391 74.8515 13.4795 75.5344 12.7822C76.227 12.085 77.105 11.7364 78.1684 11.7364C79.2219 11.7364 80.0755 12.0898 80.7291 12.7966C81.3827 13.4938 81.7096 14.4107 81.7096 15.5473V15.9484H76.4563C76.5148 16.4069 76.7246 16.7889 77.0855 17.0946C77.4465 17.4002 77.9147 17.553 78.4903 17.553C78.8025 17.553 79.139 17.4909 79.5 17.3668C79.8707 17.2426 80.1633 17.0755 80.3779 16.8653L81.1974 18.0401C80.4853 18.68 79.5146 19 78.2854 19ZM79.9097 14.7163C79.8804 14.3247 79.7195 13.9713 79.4268 13.6562C79.1439 13.341 78.7244 13.1834 78.1684 13.1834C77.6416 13.1834 77.2318 13.341 76.9392 13.6562C76.6465 13.9618 76.4758 14.3152 76.427 14.7163H79.9097Z" fill="white"/>
<path d="M96.5122 18.8281H94.3026L92.5906 12.2665L90.8931 18.8281H88.6836L85.8886 9.27221H88.2153L89.9274 16.1777L91.7858 9.27221H93.41L95.2538 16.1777L96.9512 9.27221H99.2925L96.5122 18.8281Z" fill="white"/>
<path d="M105.745 18.8281H103.886V18.1117C103.379 18.7039 102.633 19 101.647 19C101.013 19 100.443 18.7994 99.9353 18.3983C99.4378 17.9876 99.189 17.4241 99.189 16.7077C99.189 15.9628 99.4329 15.404 99.9207 15.0315C100.418 14.659 100.994 14.4728 101.647 14.4728C102.652 14.4728 103.398 14.7545 103.886 15.3181V14.3868C103.886 14.0334 103.745 13.7517 103.462 13.5415C103.179 13.3314 102.803 13.2264 102.335 13.2264C101.555 13.2264 100.867 13.4986 100.272 14.043L99.5695 12.8252C100.408 12.0993 101.438 11.7364 102.657 11.7364C103.564 11.7364 104.306 11.9417 104.881 12.3524C105.457 12.7631 105.745 13.4317 105.745 14.3582V18.8281ZM102.394 17.7679C103.086 17.7679 103.584 17.5673 103.886 17.1662V16.3066C103.584 15.9054 103.086 15.7049 102.394 15.7049C102.013 15.7049 101.696 15.8004 101.443 15.9914C101.189 16.1729 101.062 16.426 101.062 16.7507C101.062 17.0659 101.189 17.3142 101.443 17.4957C101.696 17.6772 102.013 17.7679 102.394 17.7679Z" fill="white"/>
<path d="M109.446 18.8281H107.588V9.27221H109.446V18.8281Z" fill="white"/>
<path d="M113.147 18.8281H111.289V9.27221H113.147V18.8281Z" fill="white"/>
<path d="M118.312 19C117.219 19 116.317 18.6657 115.605 17.9971C114.893 17.3286 114.537 16.4499 114.537 15.361C114.537 14.3391 114.878 13.4795 115.561 12.7822C116.254 12.085 117.131 11.7364 118.195 11.7364C119.248 11.7364 120.102 12.0898 120.756 12.7966C121.409 13.4938 121.736 14.4107 121.736 15.5473V15.9484H116.483C116.541 16.4069 116.751 16.7889 117.112 17.0946C117.473 17.4002 117.941 17.553 118.517 17.553C118.829 17.553 119.165 17.4909 119.526 17.3668C119.897 17.2426 120.19 17.0755 120.404 16.8653L121.224 18.0401C120.512 18.68 119.541 19 118.312 19ZM119.936 14.7163C119.907 14.3247 119.746 13.9713 119.453 13.6562C119.17 13.341 118.751 13.1834 118.195 13.1834C117.668 13.1834 117.258 13.341 116.966 13.6562C116.673 13.9618 116.502 14.3152 116.453 14.7163H119.936Z" fill="white"/>
<path d="M125.449 19C124.795 19 124.298 18.8376 123.956 18.5129C123.615 18.1882 123.444 17.7202 123.444 17.1089V13.4986H122.274V11.9083H123.444V10.0172H125.317V11.9083H126.751V13.4986H125.317V16.6218C125.317 16.8415 125.376 17.0229 125.493 17.1662C125.61 17.3095 125.766 17.3811 125.961 17.3811C126.254 17.3811 126.468 17.3142 126.605 17.1805L127 18.5559C126.659 18.852 126.142 19 125.449 19Z" fill="white"/>
<path fill-rule="evenodd" clip-rule="evenodd" d="M14 28C21.732 28 28 21.732 28 14C28 6.26801 21.732 0 14 0C6.26801 0 0 6.26801 0 14C0 21.732 6.26801 28 14 28Z" fill="url(#paint0_linear)"/>
<path fill-rule="evenodd" clip-rule="evenodd" d="M3.12849 22.8218C3.13185 22.7882 3.13357 22.7541 3.13357 22.7194C3.13357 22.4485 3.03479 22.2269 2.86191 22.0545L4.3931 19.4936C4.71416 19.6414 5.08461 19.7399 5.45505 19.7399C6.24535 19.7399 6.93685 19.3951 7.40609 18.8288L9.70287 20.3555C9.62878 20.5278 9.57939 20.7248 9.57939 20.9464C9.57939 21.7344 10.2215 22.3747 11.0118 22.3747C11.8021 22.3747 12.4442 21.7344 12.4442 20.9464V20.8972L17.6305 19.7891C17.9021 20.5771 18.6677 21.1681 19.5568 21.1681C20.0754 21.1681 20.5447 20.9711 20.8904 20.651L23.0884 22.5963C23.0143 22.7194 22.9896 22.8671 22.9896 23.0395C22.9896 23.5321 23.3368 23.923 23.8083 23.9898C24.1902 23.6148 24.5507 23.218 24.8878 22.8016C24.7852 22.38 24.4134 22.0792 23.9528 22.0792C23.7552 22.0792 23.5824 22.1284 23.4342 22.2269L21.2609 20.2816C21.4832 19.9615 21.6313 19.5429 21.6313 19.1242C21.6313 18.1147 20.8904 17.2774 19.9026 17.1051L20.1001 11.2198C20.3965 11.1706 20.6682 11.0229 20.8657 10.8012L24.8913 13.1898L27.6806 16.9871C27.729 16.7645 27.772 16.5399 27.8097 16.3134L25.4099 13.0174L27.6939 11.075C27.6547 10.8905 27.6118 10.7073 27.5654 10.5255L25.0395 12.6973L21.1127 10.358C21.1621 10.2103 21.1868 10.0871 21.1868 9.91476C21.1868 9.20066 20.5941 8.60967 19.8779 8.60967C19.5568 8.60967 19.2605 8.7328 19.0135 8.92979L14.9879 5.901C15.0373 5.77788 15.062 5.65476 15.062 5.53164C15.062 4.9899 14.6422 4.57129 14.0989 4.57129C13.5555 4.57129 13.1357 4.9899 13.1357 5.53164C13.1357 5.82713 13.2592 6.07337 13.4568 6.24574L11.5798 10.0133C11.4069 9.96401 11.2341 9.93939 11.0612 9.93939C10.4685 9.93939 9.94984 10.2349 9.65348 10.7027L4.98582 8.56043C5.01052 8.4373 5.03521 8.31418 5.03521 8.19106C5.03521 7.40308 4.3931 6.76285 3.60281 6.76285C2.81252 6.76285 2.14571 7.37846 2.14571 8.19106C2.14571 9.00366 2.78782 9.61927 3.57811 9.61927C4.07204 9.61927 4.51658 9.37303 4.76355 9.00366L9.43121 11.146C9.38181 11.2937 9.35712 11.4661 9.35712 11.6138C9.35712 11.9832 9.4806 12.3526 9.70287 12.6234L7.06033 15.3075C6.64049 14.9627 6.07247 14.7411 5.47975 14.7411C4.56598 14.7411 3.77568 15.2336 3.33115 15.9477L0.00439453 14.3564C0.00927651 14.5518 0.0181602 14.7462 0.0309666 14.9394L3.10888 16.391C3.01009 16.6618 2.9607 16.9327 2.9607 17.2282C2.9607 18.0408 3.35584 18.7795 3.97326 19.2227L2.44207 21.8083C2.41783 21.8002 2.39096 21.7922 2.36231 21.785C2.602 22.1426 2.85774 22.4885 3.12849 22.8218ZM14.1236 6.49198C14.0495 6.49198 14.0001 6.49198 13.926 6.46736L12.049 10.2595C12.4689 10.555 12.7653 11.0721 12.7653 11.6385C12.7653 11.9586 12.6665 12.2787 12.4936 12.5496L18.2479 17.6222C18.569 17.3267 18.9888 17.1543 19.4333 17.1051L19.6309 11.2198C19.0382 11.0967 18.6183 10.5796 18.6183 9.96401C18.6183 9.76702 18.6677 9.57002 18.7665 9.39765L14.7163 6.29499C14.5434 6.41811 14.3458 6.49198 14.1236 6.49198ZM11.0118 19.469C11.6045 19.469 12.1231 19.863 12.3454 20.3801L17.5317 19.2227V19.0504C17.5317 18.6071 17.6799 18.2132 17.9021 17.893L12.1725 12.8451C11.8762 13.0913 11.5057 13.239 11.0859 13.239C10.6907 13.239 10.345 13.1159 10.0733 12.9189L7.40609 15.603C7.75184 16.0462 7.97411 16.5879 7.97411 17.2036C7.97411 17.6468 7.87532 18.0408 7.67775 18.3855L9.97453 19.9122C10.2215 19.6414 10.5919 19.469 11.0118 19.469Z" fill="white" fill-opacity="0.8"/>
<defs>
<linearGradient id="paint0_linear" x1="14" y1="-14" x2="-14" y2="14" gradientUnits="userSpaceOnUse">
<stop stop-color="#FCA800"/>
<stop offset="1" stop-color="#F76B1C"/>
</linearGradient>
</defs>
</svg>
